<mxfile host="app.diagrams.net" modified="2022-01-27T06:45:28.148Z" agent="5.0 (Windows NT 10.0; Win64; x64) AppleWebKit/537.36 (KHTML, like Gecko) Chrome/97.0.4692.99 Safari/537.36" etag="U9SiccU8vSoxV8MP5LRK" version="16.2.7" type="github">
  <diagram name="Page-1" id="e7e014a7-5840-1c2e-5031-d8a46d1fe8dd">
    <mxGraphModel dx="1422" dy="1588" grid="1" gridSize="10" guides="1" tooltips="1" connect="1" arrows="1" fold="1" page="1" pageScale="1" pageWidth="1169" pageHeight="826" background="none" math="0" shadow="0">
      <root>
        <mxCell id="0" />
        <mxCell id="1" parent="0" />
        <mxCell id="lnL8Icjc9NZx8Uf-hi12-41" value="Pool" style="swimlane;childLayout=stackLayout;resizeParent=1;resizeParentMax=0;startSize=20;" vertex="1" parent="1">
          <mxGeometry x="180" y="90" width="310" height="580" as="geometry" />
        </mxCell>
        <mxCell id="lnL8Icjc9NZx8Uf-hi12-42" value="生产" style="swimlane;startSize=20;" vertex="1" parent="lnL8Icjc9NZx8Uf-hi12-41">
          <mxGeometry y="20" width="160" height="560" as="geometry" />
        </mxCell>
        <mxCell id="lnL8Icjc9NZx8Uf-hi12-45" value="" style="rounded=0;whiteSpace=wrap;html=1;" vertex="1" parent="lnL8Icjc9NZx8Uf-hi12-42">
          <mxGeometry x="20" y="40" width="120" height="40" as="geometry" />
        </mxCell>
        <mxCell id="lnL8Icjc9NZx8Uf-hi12-43" value="消费" style="swimlane;startSize=20;" vertex="1" parent="lnL8Icjc9NZx8Uf-hi12-41">
          <mxGeometry x="160" y="20" width="80" height="560" as="geometry" />
        </mxCell>
        <mxCell id="lnL8Icjc9NZx8Uf-hi12-44" value="互动" style="swimlane;startSize=20;" vertex="1" parent="lnL8Icjc9NZx8Uf-hi12-41">
          <mxGeometry x="240" y="20" width="70" height="560" as="geometry" />
        </mxCell>
        <mxCell id="lnL8Icjc9NZx8Uf-hi12-49" value="" style="edgeStyle=orthogonalEdgeStyle;rounded=0;orthogonalLoop=1;jettySize=auto;html=1;exitX=0.5;exitY=0;exitDx=0;exitDy=0;entryX=0;entryY=0.5;entryDx=0;entryDy=0;" edge="1" parent="1" source="lnL8Icjc9NZx8Uf-hi12-47" target="lnL8Icjc9NZx8Uf-hi12-48">
          <mxGeometry relative="1" as="geometry">
            <Array as="points">
              <mxPoint x="145" y="-413" />
            </Array>
          </mxGeometry>
        </mxCell>
        <mxCell id="lnL8Icjc9NZx8Uf-hi12-54" value="看到喜欢的" style="edgeLabel;html=1;align=center;verticalAlign=middle;resizable=0;points=[];" vertex="1" connectable="0" parent="lnL8Icjc9NZx8Uf-hi12-49">
          <mxGeometry x="0.0877" y="1" relative="1" as="geometry">
            <mxPoint as="offset" />
          </mxGeometry>
        </mxCell>
        <mxCell id="lnL8Icjc9NZx8Uf-hi12-53" style="edgeStyle=orthogonalEdgeStyle;rounded=0;orthogonalLoop=1;jettySize=auto;html=1;exitX=1;exitY=0.25;exitDx=0;exitDy=0;entryX=0;entryY=0.5;entryDx=0;entryDy=0;" edge="1" parent="1" source="lnL8Icjc9NZx8Uf-hi12-47" target="lnL8Icjc9NZx8Uf-hi12-52">
          <mxGeometry relative="1" as="geometry" />
        </mxCell>
        <mxCell id="lnL8Icjc9NZx8Uf-hi12-55" value="没有喜欢的有其他想看的" style="edgeLabel;html=1;align=center;verticalAlign=middle;resizable=0;points=[];" vertex="1" connectable="0" parent="lnL8Icjc9NZx8Uf-hi12-53">
          <mxGeometry x="-0.0002" y="-1" relative="1" as="geometry">
            <mxPoint as="offset" />
          </mxGeometry>
        </mxCell>
        <mxCell id="lnL8Icjc9NZx8Uf-hi12-57" style="edgeStyle=orthogonalEdgeStyle;rounded=0;orthogonalLoop=1;jettySize=auto;html=1;exitX=0.467;exitY=0.989;exitDx=0;exitDy=0;entryX=0;entryY=0.5;entryDx=0;entryDy=0;exitPerimeter=0;" edge="1" parent="1" source="lnL8Icjc9NZx8Uf-hi12-47" target="lnL8Icjc9NZx8Uf-hi12-56">
          <mxGeometry relative="1" as="geometry">
            <Array as="points">
              <mxPoint x="142" y="-300" />
            </Array>
          </mxGeometry>
        </mxCell>
        <mxCell id="lnL8Icjc9NZx8Uf-hi12-58" value="随便逛逛" style="edgeLabel;html=1;align=center;verticalAlign=middle;resizable=0;points=[];" vertex="1" connectable="0" parent="lnL8Icjc9NZx8Uf-hi12-57">
          <mxGeometry x="0.0667" y="-1" relative="1" as="geometry">
            <mxPoint as="offset" />
          </mxGeometry>
        </mxCell>
        <mxCell id="lnL8Icjc9NZx8Uf-hi12-47" value="首页" style="rounded=1;whiteSpace=wrap;html=1;" vertex="1" parent="1">
          <mxGeometry x="100" y="-370" width="90" height="40" as="geometry" />
        </mxCell>
        <mxCell id="lnL8Icjc9NZx8Uf-hi12-48" value="阅读" style="whiteSpace=wrap;html=1;fillColor=rgb(255, 255, 255);strokeColor=rgb(0, 0, 0);fontColor=rgb(0, 0, 0);rounded=1;" vertex="1" parent="1">
          <mxGeometry x="360" y="-433" width="100" height="40" as="geometry" />
        </mxCell>
        <mxCell id="lnL8Icjc9NZx8Uf-hi12-67" style="edgeStyle=orthogonalEdgeStyle;rounded=0;orthogonalLoop=1;jettySize=auto;html=1;entryX=0;entryY=0.5;entryDx=0;entryDy=0;exitX=1;exitY=0.5;exitDx=0;exitDy=0;" edge="1" parent="1" source="lnL8Icjc9NZx8Uf-hi12-52" target="lnL8Icjc9NZx8Uf-hi12-65">
          <mxGeometry relative="1" as="geometry">
            <mxPoint x="550" y="-350" as="sourcePoint" />
          </mxGeometry>
        </mxCell>
        <mxCell id="lnL8Icjc9NZx8Uf-hi12-69" value="明确书名，找到了" style="edgeLabel;html=1;align=center;verticalAlign=middle;resizable=0;points=[];" vertex="1" connectable="0" parent="lnL8Icjc9NZx8Uf-hi12-67">
          <mxGeometry x="0.0798" relative="1" as="geometry">
            <mxPoint as="offset" />
          </mxGeometry>
        </mxCell>
        <mxCell id="lnL8Icjc9NZx8Uf-hi12-68" style="edgeStyle=orthogonalEdgeStyle;rounded=0;orthogonalLoop=1;jettySize=auto;html=1;exitX=1;exitY=0.5;exitDx=0;exitDy=0;entryX=0;entryY=0.5;entryDx=0;entryDy=0;" edge="1" parent="1" source="lnL8Icjc9NZx8Uf-hi12-52" target="lnL8Icjc9NZx8Uf-hi12-66">
          <mxGeometry relative="1" as="geometry" />
        </mxCell>
        <mxCell id="lnL8Icjc9NZx8Uf-hi12-70" value="明确书名，没找到" style="edgeLabel;html=1;align=center;verticalAlign=middle;resizable=0;points=[];" vertex="1" connectable="0" parent="lnL8Icjc9NZx8Uf-hi12-68">
          <mxGeometry x="0.1745" y="-1" relative="1" as="geometry">
            <mxPoint as="offset" />
          </mxGeometry>
        </mxCell>
        <mxCell id="lnL8Icjc9NZx8Uf-hi12-52" value="搜索" style="whiteSpace=wrap;html=1;fillColor=rgb(255, 255, 255);strokeColor=rgb(0, 0, 0);fontColor=rgb(0, 0, 0);rounded=1;" vertex="1" parent="1">
          <mxGeometry x="360" y="-380" width="100" height="40" as="geometry" />
        </mxCell>
        <mxCell id="lnL8Icjc9NZx8Uf-hi12-60" style="edgeStyle=orthogonalEdgeStyle;rounded=0;orthogonalLoop=1;jettySize=auto;html=1;exitX=1;exitY=0.5;exitDx=0;exitDy=0;entryX=0;entryY=0.5;entryDx=0;entryDy=0;" edge="1" parent="1" source="lnL8Icjc9NZx8Uf-hi12-56" target="lnL8Icjc9NZx8Uf-hi12-59">
          <mxGeometry relative="1" as="geometry" />
        </mxCell>
        <mxCell id="lnL8Icjc9NZx8Uf-hi12-61" value="有感兴趣的话题" style="edgeLabel;html=1;align=center;verticalAlign=middle;resizable=0;points=[];" vertex="1" connectable="0" parent="lnL8Icjc9NZx8Uf-hi12-60">
          <mxGeometry x="-0.1134" y="1" relative="1" as="geometry">
            <mxPoint as="offset" />
          </mxGeometry>
        </mxCell>
        <mxCell id="lnL8Icjc9NZx8Uf-hi12-63" style="edgeStyle=orthogonalEdgeStyle;rounded=0;orthogonalLoop=1;jettySize=auto;html=1;exitX=0.5;exitY=1;exitDx=0;exitDy=0;entryX=-0.01;entryY=0.585;entryDx=0;entryDy=0;entryPerimeter=0;" edge="1" parent="1" source="lnL8Icjc9NZx8Uf-hi12-56" target="lnL8Icjc9NZx8Uf-hi12-62">
          <mxGeometry relative="1" as="geometry" />
        </mxCell>
        <mxCell id="lnL8Icjc9NZx8Uf-hi12-64" value="没有看到感兴趣，但有交流、提问诉求" style="edgeLabel;html=1;align=center;verticalAlign=middle;resizable=0;points=[];" vertex="1" connectable="0" parent="lnL8Icjc9NZx8Uf-hi12-63">
          <mxGeometry x="-0.2925" y="1" relative="1" as="geometry">
            <mxPoint as="offset" />
          </mxGeometry>
        </mxCell>
        <mxCell id="lnL8Icjc9NZx8Uf-hi12-56" value="找书" style="whiteSpace=wrap;html=1;fillColor=rgb(255, 255, 255);strokeColor=rgb(0, 0, 0);fontColor=rgb(0, 0, 0);rounded=1;" vertex="1" parent="1">
          <mxGeometry x="360" y="-320" width="100" height="40" as="geometry" />
        </mxCell>
        <mxCell id="lnL8Icjc9NZx8Uf-hi12-59" value="找书" style="whiteSpace=wrap;html=1;fillColor=rgb(255, 255, 255);strokeColor=rgb(0, 0, 0);fontColor=rgb(0, 0, 0);rounded=1;" vertex="1" parent="1">
          <mxGeometry x="630" y="-320" width="100" height="40" as="geometry" />
        </mxCell>
        <mxCell id="lnL8Icjc9NZx8Uf-hi12-62" value="发话题" style="whiteSpace=wrap;html=1;fillColor=rgb(255, 255, 255);strokeColor=rgb(0, 0, 0);fontColor=rgb(0, 0, 0);rounded=1;" vertex="1" parent="1">
          <mxGeometry x="630" y="-260" width="100" height="40" as="geometry" />
        </mxCell>
        <mxCell id="lnL8Icjc9NZx8Uf-hi12-65" value="阅读" style="whiteSpace=wrap;html=1;fillColor=rgb(255, 255, 255);strokeColor=rgb(0, 0, 0);fontColor=rgb(0, 0, 0);rounded=1;" vertex="1" parent="1">
          <mxGeometry x="630" y="-433" width="100" height="40" as="geometry" />
        </mxCell>
        <mxCell id="lnL8Icjc9NZx8Uf-hi12-66" value="提交反馈信息" style="whiteSpace=wrap;html=1;fillColor=rgb(255, 255, 255);strokeColor=rgb(0, 0, 0);fontColor=rgb(0, 0, 0);rounded=1;" vertex="1" parent="1">
          <mxGeometry x="630" y="-380" width="100" height="40" as="geometry" />
        </mxCell>
      </root>
    </mxGraphModel>
  </diagram>
</mxfile>
